# xmcd
#
# Track frame offsets:
#	150
#	12813
#	22877
#	35116
#	48925
#	60603
#	70661
#	84050
#	98931
#	111552
#	120646
#	132153
#	144720
#	157631
#	170215
#	182768
#	193244
#	208201
#
# Disc length: 2951 seconds
#
# Revision: 1
# Processed by: cddbd v1.5.2PL0 Copyright (c) Steve Scherf et al.
# Submitted via: audiograbber 1.83.01
#
DISCID=fa0b8512
DTITLE=Various Artist - Country legends Vol. 1
DYEAR=2006
DGENRE=Country
TTITLE0=Johny Cash - Folsom prison blues
TTITLE1=Roger Miller - King of the road
TTITLE2=Hank Williams - Cold cold heart
TTITLE3=Georg Jones - A good year for the roses
TTITLE4=Patsy Cline - A poor man's roses
TTITLE5=Lorretta Lynn - You're lookin at country
TTITLE6=Don Williams - Ruby tuesday
TTITLE7=Kenny Rogers - She even woke me up to say goodbye
TTITLE8=Billie Jo Spears - What I've got in mind
TTITLE9=Frankie Laine - Rawhide
TTITLE10=Buck Owens - Foolin' around
TTITLE11=Jack Green - Beautiful lady
TTITLE12=Dollz Parton - Little blossom
TTITLE13=Kitty Wells - Making believe
TTITLE14=Charley Pride - Help me make it through the night
TTITLE15=Don Gibson - Funny familliar forgotten feelings
TTITLE16=Willie Nelson - Face of a fighter
TTITLE17=Dottie West - D.I.V.O.R.C.E
EXTD=
EXTT0=
EXTT1=
EXTT2=
EXTT3=
EXTT4=
EXTT5=
EXTT6=
EXTT7=
EXTT8=
EXTT9=
EXTT10=
EXTT11=
EXTT12=
EXTT13=
EXTT14=
EXTT15=
EXTT16=
EXTT17=
PLAYORDER=
